<svg width="40" height="24" xmlns="http://www.w3.org/2000/svg"><g fill="none" fill-rule="evenodd"><path d="M2.243 0h35.514C38.996 0 40 .992 40 2.215v19.57C40 23.008 38.996 24 37.757 24H2.243C1.004 24 0 23.008 0 21.785V2.215C0 .992 1.004 0 2.243 0z" fill="#FFF" fill-rule="nonzero"/><path d="M9.426 23.727l28.147-.174a2.059 2.059 0 0 0 2.038-2.01l.15-8.054s-10.56 6.988-30.335 10.238z" fill="#E6772F"/><path d="M7.078 10.94c-.303.257-.688.37-1.303.37h-.256V8.247h.256c.615 0 .986.105 1.303.374.327.278.524.708.524 1.152 0 .446-.197.89-.524 1.167zM5.965 7.465H4.567v4.63h1.39c.74 0 1.273-.167 1.74-.536a2.28 2.28 0 0 0 .886-1.778c0-1.367-1.076-2.316-2.618-2.316zM9.022 7.464h.948v4.63h-.948zM12.298 9.238c-.572-.199-.74-.331-.74-.582 0-.29.3-.511.71-.511.285 0 .52.108.77.373l.495-.617a2.19 2.19 0 0 0-1.432-.514c-.863 0-1.521.57-1.521 1.324 0 .64.306.964 1.198 1.273.373.123.563.207.659.264.19.116.285.284.285.477 0 .377-.315.653-.74.653a1.13 1.13 0 0 1-1.037-.618l-.614.563c.439.61.964.883 1.688.883.988 0 1.684-.628 1.684-1.522 0-.736-.323-1.07-1.405-1.446M14.002 9.78c0 1.362 1.126 2.417 2.575 2.417.409 0 .76-.077 1.19-.27v-1.064c-.38.363-.715.507-1.148.507-.958 0-1.636-.658-1.636-1.596 0-.887.7-1.59 1.594-1.59.451 0 .796.152 1.19.521V7.642c-.416-.2-.758-.283-1.17-.283-1.442 0-2.595 1.076-2.595 2.421M25.475 10.572l-1.301-3.108h-1.037l2.068 4.747h.51l2.108-4.747h-1.03l-1.318 3.108M28.254 12.094h2.698v-.785h-1.746v-1.25h1.68v-.784h-1.68V8.248h1.746v-.784h-2.698v4.63M32.81 9.593h-.276v-1.4h.291c.595 0 .913.236.913.687 0 .464-.318.713-.928.713zm1.908-.763c0-.867-.627-1.366-1.725-1.366H31.58v4.63h.954v-1.862h.123l1.315 1.862h1.17l-1.535-1.952c.717-.139 1.11-.604 1.11-1.312z" fill="#1A1919"/><path d="M20.728 12.204c-1.405 0-2.543-1.08-2.543-2.413 0-1.333 1.138-2.414 2.543-2.414 1.405 0 2.543 1.08 2.543 2.414 0 1.333-1.138 2.413-2.543 2.413z" fill="#E6772F"/><g fill="#231F20" fill-rule="nonzero"><path d="M10.79 14.01l1.766 1.494v-1.423h.248v1.926l-1.767-1.495v1.423h-.248zM14.147 14.01h1.343v.204h-1.058v.597h1.037v.205h-1.037v.787h1.058v.204h-1.343zM16.957 16.007h-.248v-1.795h-.548v-.203h1.343v.203h-.547zM18.907 15.465l.612-1.456.612 1.456.507-1.37h.224l-.731 1.912-.612-1.47-.612 1.47-.731-1.912h.224zM23.548 15.008c0 .56-.451 1-1.007 1a.998.998 0 1 1 0-1.999c.556 0 1.007.454 1.007 1zm-1.79 0c0 .44.347.802.783.802a.792.792 0 0 0 .781-.802.792.792 0 0 0-.781-.802.792.792 0 0 0-.782.802zM25.145 16.007h-.254V14.01h.327c.435 0 .853.094.853.546 0 .313-.218.531-.581.547l.744.89h-.309l-.707-.875h-.073v.89zm0-1.077h.073c.29 0 .58-.047.58-.359 0-.328-.272-.359-.599-.359h-.072v.718h.018zM27.935 14.025h.284l-.896.929.926 1.053h-.299l-.776-.914-.06.047v.852h-.208v-1.983h.208v.852z"/></g><path d="M.5 2.005v19.99A1.5 1.5 0 0 0 1.997 23.5h36.006a1.5 1.5 0 0 0 1.497-1.505V2.005A1.5 1.5 0 0 0 38.003.5H1.997A1.5 1.5 0 0 0 .5 2.005zm-.5 0A2 2 0 0 1 1.997 0h36.006A2 2 0 0 1 40 2.005v19.99A2 2 0 0 1 38.003 24H1.997A2 2 0 0 1 0 21.995V2.005z" fill="#BEC8D2" fill-rule="nonzero"/></g></svg>