<svg width="40" height="24" xmlns="http://www.w3.org/2000/svg"><g fill="none" fill-rule="nonzero"><path d="M2.243 0h35.514C38.996 0 40 .992 40 2.215v19.57C40 23.008 38.996 24 37.757 24H2.243C1.004 24 0 23.008 0 21.785V2.215C0 .992 1.004 0 2.243 0z" fill="#FFF"/><path d="M.5 2.005v19.99A1.5 1.5 0 0 0 1.997 23.5h36.006a1.5 1.5 0 0 0 1.497-1.505V2.005A1.5 1.5 0 0 0 38.003.5H1.997A1.5 1.5 0 0 0 .5 2.005zm-.5 0A2 2 0 0 1 1.997 0h36.006A2 2 0 0 1 40 2.005v19.99A2 2 0 0 1 38.003 24H1.997A2 2 0 0 1 0 21.995V2.005z" fill="#BEC8D2"/><path d="M12.828 20.899v-1.193a.71.71 0 0 0-.745-.755.732.732 0 0 0-.666.338.695.695 0 0 0-.626-.338.625.625 0 0 0-.555.282v-.235h-.412V20.9h.416v-1.046a.446.446 0 0 1 .464-.505c.273 0 .412.18.412.501v1.058h.416v-1.054a.448.448 0 0 1 .464-.505c.28 0 .416.18.416.501v1.058l.416-.008zm6.154-1.9h-.677v-.577h-.416v.576h-.376v.378h.384v.875c0 .441.17.704.658.704.182 0 .36-.05.515-.147l-.12-.354a.759.759 0 0 1-.364.107c-.198 0-.273-.127-.273-.318v-.867h.673l-.004-.378zm3.515-.048a.558.558 0 0 0-.5.278v-.23h-.408v1.9h.413v-1.066c0-.314.134-.489.396-.489a.67.67 0 0 1 .257.048l.127-.398a.879.879 0 0 0-.293-.051l.008.008zm-5.313.198a1.412 1.412 0 0 0-.773-.198c-.48 0-.792.23-.792.608 0 .31.23.501.653.56l.199.029c.225.031.332.091.332.198 0 .147-.15.23-.431.23a1.006 1.006 0 0 1-.63-.198l-.199.322c.24.168.528.255.82.247.547 0 .864-.259.864-.62 0-.362-.25-.51-.661-.57l-.198-.027c-.179-.024-.321-.06-.321-.187s.134-.223.36-.223c.209.003.414.059.594.163l.183-.334zm11.036-.198a.558.558 0 0 0-.5.278v-.23h-.407v1.9h.412v-1.066c0-.314.134-.489.396-.489a.67.67 0 0 1 .257.048l.127-.398a.879.879 0 0 0-.293-.051l.008.008zm-5.31.994a.962.962 0 0 0 1.011.994.988.988 0 0 0 .682-.227l-.199-.334a.83.83 0 0 1-.495.171.61.61 0 0 1 0-1.217.83.83 0 0 1 .495.171l.199-.334a.988.988 0 0 0-.682-.226.955.955 0 0 0-1.01.994v.008zm3.86 0v-.947h-.412v.231a.718.718 0 0 0-.595-.278.992.992 0 0 0-.99.994c0 .549.443.994.99.994a.718.718 0 0 0 .595-.279v.231h.412v-.946zm-1.534 0a.573.573 0 0 1 1.144.043.574.574 0 1 1-1.144-.043zm-4.972-.994a.993.993 0 0 0-.976 1.008.992.992 0 0 0 1.004.98c.285.014.565-.078.786-.259l-.198-.306a.9.9 0 0 1-.55.199.525.525 0 0 1-.567-.465h1.406v-.16c0-.596-.368-.993-.899-.993l-.006-.004zm0 .37a.469.469 0 0 1 .48.46h-.99a.488.488 0 0 1 .502-.46h.008zm10.323.628v-1.714h-.396v.994a.718.718 0 0 0-.594-.278.992.992 0 0 0-.99.994c0 .549.443.994.99.994a.718.718 0 0 0 .594-.279v.231h.396v-.942zm-1.523 0a.573.573 0 0 1 1.144.043.574.574 0 1 1-1.144-.043zm-13.913 0v-.95h-.412v.23a.718.718 0 0 0-.594-.278.992.992 0 0 0-.99.994c0 .549.443.994.99.994a.718.718 0 0 0 .594-.279v.231h.412v-.942zm-1.533 0a.573.573 0 0 1 1.144.043.574.574 0 0 1-.57.565.568.568 0 0 1-.578-.608h.004z" fill="#231F20"/><path fill="#FF5F00" d="M17.047 4.515h6.24V15.77h-6.24z"/><path d="M17.443 10.143a7.155 7.155 0 0 1 2.724-5.628 7.113 7.113 0 0 0-9.646.771 7.176 7.176 0 0 0 0 9.712 7.113 7.113 0 0 0 9.646.772 7.155 7.155 0 0 1-2.724-5.627z" fill="#EB001B"/><path d="M31.706 10.143a7.16 7.16 0 0 1-4.015 6.438 7.11 7.11 0 0 1-7.524-.811 7.167 7.167 0 0 0 2.725-5.628 7.167 7.167 0 0 0-2.725-5.627 7.11 7.11 0 0 1 7.524-.812 7.16 7.16 0 0 1 4.015 6.438v.002z" fill="#F79E1B"/></g></svg>