<svg width="40" height="24" xmlns="http://www.w3.org/2000/svg"><g fill="none" fill-rule="evenodd"><path d="M2.243 0h35.514C38.996 0 40 .992 40 2.215v19.57C40 23.008 38.996 24 37.757 24H2.243C1.004 24 0 23.008 0 21.785V2.215C0 .992 1.004 0 2.243 0z" fill="#F8F8F8" fill-rule="nonzero"/><path d="M.5 2.005v19.99A1.5 1.5 0 0 0 1.997 23.5h36.006a1.5 1.5 0 0 0 1.497-1.505V2.005A1.5 1.5 0 0 0 38.003.5H1.997A1.5 1.5 0 0 0 .5 2.005zm-.5 0A2 2 0 0 1 1.997 0h36.006A2 2 0 0 1 40 2.005v19.99A2 2 0 0 1 38.003 24H1.997A2 2 0 0 1 0 21.995V2.005z" fill="#BEC8D2" fill-rule="nonzero"/><path fill="#537BB4" d="M.374 3.323H40v4.062H.374z"/><path fill="#FFF" d="M23.177 9.6h14.206v9.6H23.177z"/><path d="M23.215 10.449v7.902c0 .442.35.796.778.796h12.575a.79.79 0 0 0 .778-.796V10.45a.786.786 0 0 0-.778-.796H23.993a.79.79 0 0 0-.778.796zm-.785 0c0-.877.705-1.587 1.563-1.587h12.575c.863 0 1.563.71 1.563 1.587v7.902c0 .877-.705 1.587-1.563 1.587H23.993c-.863 0-1.563-.71-1.563-1.587V10.45z" fill="#FF0202" fill-rule="nonzero"/><path d="M23.178 10.066v8.298c0 .464.36.836.802.836h12.974c.44 0 .803-.375.803-.836v-8.298c0-.463-.36-.835-.803-.835H23.98c-.439 0-.802.375-.802.835zm-1.122.12c0-.936.739-1.694 1.637-1.694h13.174c.905 0 1.638.757 1.638 1.693v8.43c0 .935-.739 1.693-1.638 1.693H23.693c-.904 0-1.637-.757-1.637-1.693v-8.43z" fill="#FF0202" fill-rule="nonzero"/></g></svg>