<svg width="40" height="24" xmlns="http://www.w3.org/2000/svg"><g fill="none" fill-rule="evenodd"><path d="M2.243 0h35.514C38.996 0 40 .992 40 2.215v19.57C40 23.008 38.996 24 37.757 24H2.243C1.004 24 0 23.008 0 21.785V2.215C0 .992 1.004 0 2.243 0z" fill="#FFF" fill-rule="nonzero"/><path d="M.5 2.005v19.99A1.5 1.5 0 0 0 1.997 23.5h36.006a1.5 1.5 0 0 0 1.497-1.505V2.005A1.5 1.5 0 0 0 38.003.5H1.997A1.5 1.5 0 0 0 .5 2.005zm-.5 0A2 2 0 0 1 1.997 0h36.006A2 2 0 0 1 40 2.005v19.99A2 2 0 0 1 38.003 24H1.997A2 2 0 0 1 0 21.995V2.005z" fill="#BEC8D2" fill-rule="nonzero"/><path d="M25.408 12.326H26.971a.884.884 0 0 1 .129.01.733.733 0 0 1 .041.008l.01.002a.631.631 0 0 1 .18.07.682.682 0 0 1 .285.304.688.688 0 0 1 .07.313.75.75 0 0 1-.096.363.68.68 0 0 1-.439.325l-.01.002a.328.328 0 0 1-.041.007 1.093 1.093 0 0 1-.13.01H25.409v-1.414zm2.079-1.601a.705.705 0 0 1-.078.495.627.627 0 0 1-.438.295l-.007.001a.427.427 0 0 1-.045.006 1.427 1.427 0 0 1-.103.006H25.408v-1.305H26.842a1.1 1.1 0 0 1 .122.011l.007.001a.646.646 0 0 1 .258.106.626.626 0 0 1 .258.384zm3.201-6.77h.01v13.408a2.72 2.72 0 0 1-.32 1.274 2.656 2.656 0 0 1-.31.455l-.025.03-.026.03a2.717 2.717 0 0 1-.052.056l-.026.027-.026.026-.025.025-.026.025a2.743 2.743 0 0 1-.13.115l-.025.021-.026.021-.026.02-.026.02-.025.019-.026.019-.026.018-.026.018-.026.017-.025.017-.026.017a2.477 2.477 0 0 1-.052.032l-.026.015-.025.015-.026.014-.026.015-.026.013-.026.014-.026.013-.025.013-.026.012-.026.012-.026.012-.026.011-.025.011-.026.011-.026.01-.026.01-.026.01-.026.01-.025.009-.026.01-.026.008-.026.008-.026.008-.025.008-.026.007-.026.007-.026.007-.026.007-.026.006-.025.006-.026.006-.026.005-.026.006-.026.005-.025.004-.026.005-.026.004-.026.004-.026.004-.026.003-.025.003-.026.003-.026.003-.026.002-.026.002-.025.002-.026.002-.026.001-.026.001-.026.001-.026.001H24.101v-5.466H28.287l.026-.001h.026l.025-.002h.026l.026-.003.026-.001.026-.002.026-.003.025-.002.026-.003.026-.003.026-.004.026-.003.025-.004.026-.005.026-.004.026-.005.026-.006.026-.005.025-.006.026-.007a1.975 1.975 0 0 0 .103-.028l.026-.008a1.65 1.65 0 0 0 .078-.027l.026-.01.025-.01.026-.01a1.64 1.64 0 0 0 .465-.3 1.258 1.258 0 0 0 .284-.413 1.169 1.169 0 0 0 .089-.465 1.22 1.22 0 0 0-.063-.383 1.103 1.103 0 0 0-.31-.466 1.334 1.334 0 0 0-.284-.203 1.412 1.412 0 0 0-.18-.087l-.027-.01a1.949 1.949 0 0 0-.025-.01l-.026-.01a2.282 2.282 0 0 0-.104-.034l-.025-.007a1.986 1.986 0 0 0-.181-.044l-.026-.005-.026-.004a1.964 1.964 0 0 0-.026-.005l-.025-.004a2.022 2.022 0 0 0-.026-.003l-.026-.004-.026-.003-.026-.003-.025-.003-.026-.002-.026-.002-.024-.002v-.031l.024-.004.026-.004.026-.005.025-.005a1.83 1.83 0 0 0 .026-.005l.026-.006a1.82 1.82 0 0 0 .361-.124 1.522 1.522 0 0 0 .259-.16 1.25 1.25 0 0 0 .258-.28 1.128 1.128 0 0 0 .187-.638 1.319 1.319 0 0 0-.032-.286 1.111 1.111 0 0 0-.181-.393 1.052 1.052 0 0 0-.18-.193 1.251 1.251 0 0 0-.285-.184 1.434 1.434 0 0 0-.232-.093 1.817 1.817 0 0 0-.026-.008l-.026-.008a1.898 1.898 0 0 0-.051-.014l-.026-.007a1.892 1.892 0 0 0-.052-.012l-.026-.005-.025-.006-.026-.004-.026-.005-.026-.004-.026-.004-.026-.004-.025-.003-.026-.003-.026-.003-.026-.003-.026-.002-.025-.002-.026-.002-.026-.001h-.01l-.016-.002-.026-.001-.026-.002-.025-.001-.026-.001-.026-.002h-.026l-.026-.001h-.025l-.026-.001H24.1V6.637a2.7 2.7 0 0 1 .417-1.438 2.567 2.567 0 0 1 .051-.079l.026-.037a2.83 2.83 0 0 1 .052-.07l.026-.033.026-.033a2.417 2.417 0 0 1 .051-.062l.026-.029.026-.029a2.872 2.872 0 0 1 .077-.081l.026-.026.026-.025.026-.024.026-.024.025-.023.026-.022a2.78 2.78 0 0 1 .078-.065l.025-.02.026-.02a2.793 2.793 0 0 1 .052-.038l.026-.018.026-.018.025-.018.026-.017.026-.017.026-.016.026-.016.025-.015.026-.015.026-.015.026-.014.026-.014.025-.013.026-.014.026-.012.026-.013.026-.012.026-.012.025-.011.026-.012.026-.01.026-.01.026-.011.025-.01.026-.01.026-.009.026-.009.026-.008.026-.009.025-.008.026-.008.026-.007.026-.007.026-.007.025-.007.026-.006.026-.007.026-.005.026-.006.026-.005.025-.005.026-.005.026-.005.026-.004.026-.004.025-.004c.01 0 .018-.002.026-.003l.026-.003.026-.003.026-.003.026-.003.025-.002.026-.002.026-.001.026-.002.026-.001.025-.001.026-.001H30.688z" fill="#54B230"/><path d="M9.301 13.26V6.637A2.7 2.7 0 0 1 9.718 5.2a2.67 2.67 0 0 1 .051-.078l.026-.037.026-.036.025-.034.026-.034.026-.032a2.574 2.574 0 0 1 .052-.062l.025-.03.026-.028.026-.028a2.57 2.57 0 0 1 .051-.054l.026-.025.026-.025.026-.025.025-.023.026-.023.026-.023.026-.022a2.483 2.483 0 0 1 .129-.102l.025-.019a2.445 2.445 0 0 1 .103-.07l.026-.017.026-.016.026-.016.026-.016.025-.015.026-.014.026-.015.026-.013.025-.014.026-.013.026-.013.026-.013.025-.012.026-.012.026-.011.026-.011.026-.011.025-.01.026-.01.026-.01.026-.01.025-.01.026-.009.026-.008.026-.009.026-.008.025-.008.026-.007.026-.007.026-.008.025-.006.026-.007.026-.006.026-.006.025-.005.026-.006.026-.005.026-.005.026-.004.025-.004.026-.005c.009 0 .017-.002.026-.003l.026-.004.025-.003.026-.003c.009 0 .017-.002.026-.003l.026-.002.025-.003c.009 0 .018 0 .026-.002l.026-.001.026-.002.026-.001.025-.001.026-.001H15.9v13.407a2.715 2.715 0 0 1-.254 1.141 2.651 2.651 0 0 1-.413.63l-.025.029-.026.028-.026.027a2.73 2.73 0 0 1-.103.102l-.026.024-.025.024-.026.023-.026.021-.026.022-.026.021-.025.02-.026.02-.026.02-.026.019-.025.019-.026.018-.026.017-.026.017-.025.017-.026.017-.026.016-.026.015-.026.015-.025.015a2.326 2.326 0 0 1-.052.028l-.026.014-.025.013-.026.013-.026.013-.026.012-.025.012-.026.012-.026.011-.026.011-.026.01-.025.011-.026.01-.026.01-.026.009-.025.009-.026.009-.026.008-.026.009-.026.007-.025.008-.026.007-.026.007-.026.007-.025.007-.026.006-.026.006-.026.006-.025.005-.026.005-.026.005-.026.005-.026.004-.025.004-.026.004-.026.004-.026.003-.025.003-.026.003-.026.002-.026.003-.025.002-.026.002-.026.001-.026.002h-.026l-.025.002H9.3v-5.65l.056.014.026.006.025.007.026.006.026.006.026.006.025.006.026.006.026.005.026.006.026.006.025.005.026.006.026.005.026.005.025.006.026.005.026.005.026.005.025.005.026.005.026.005.026.004.026.005.025.005.026.004.026.005.026.004.025.005.026.004.026.004.026.005.025.004.026.004.026.004.026.004.026.004.025.004.026.004.026.004.026.003.025.004.026.004.026.003.026.004.025.003.026.003.026.004.026.003.026.003.025.003.026.004.026.003.026.003.025.003.026.002.026.003.026.003.025.003.026.002.026.003.026.003.026.002.025.003.026.002.026.002.026.003.025.002.026.002.026.002.026.002.026.002.025.002.026.002.026.002.026.002.025.001.026.002.026.002.026.001.025.002.026.001.026.001.026.002h.026l.025.002.026.001.026.001.026.001.025.001.026.001.026.001h.026l.025.002h.052l.026.001h.026l.025.001h.052l.026.001H12.192l.025-.001h.026l.026-.001h.026l.025-.001.026-.001.026-.001h.026l.025-.002.026-.001.026-.001.026-.002h.026l.025-.002.026-.002.026-.001.026-.002.025-.002.026-.002.026-.002.026-.002.026-.002.025-.002.026-.002.026-.003.026-.003.025-.002.026-.003.026-.003.026-.003.025-.003.026-.003.026-.003.026-.004.026-.003.025-.004c.009 0 .017-.002.026-.003l.026-.004.026-.004.025-.004.026-.005.026-.004.026-.004.025-.005.026-.005.026-.005.026-.005.026-.005.025-.006.026-.005.026-.006.026-.006.025-.005.026-.007.026-.006.026-.006.025-.007.026-.007.026-.007.026-.007.026-.008.025-.007.026-.008.026-.008.026-.008.025-.01.026-.008.026-.009.026-.009.025-.01.026-.009.026-.01.026-.01.026-.01.025-.012.026-.01.026-.012.026-.012.025-.012.026-.012.026-.013.026-.013.026-.013.025-.014a2.436 2.436 0 0 0 .078-.044l.025-.016.026-.016.026-.016.026-.017.025-.018.026-.018.026-.019.026-.02a1.908 1.908 0 0 0 .077-.062l.026-.022.026-.023.025-.024a1.693 1.693 0 0 0 .052-.052l.026-.027.025-.028a1.669 1.669 0 0 0 .31-.507 1.843 1.843 0 0 0 .103-.368 2.322 2.322 0 0 0 .038-.452V9.422H13.068l-.02 3.111a1.641 1.641 0 0 1-.032.319 1.388 1.388 0 0 1-.129.355 1.21 1.21 0 0 1-.309.363 1.306 1.306 0 0 1-.464.228l-.026.007a1.561 1.561 0 0 1-.154.032l-.026.004a1.912 1.912 0 0 1-.051.007l-.026.002-.026.003-.026.002a1.969 1.969 0 0 1-.051.003l-.026.002h-.026l-.026.001h-.128l-.026-.001-.026-.001-.026-.001-.026-.002h-.025l-.026-.002-.026-.002-.026-.002-.025-.002-.026-.002-.026-.002-.026-.003-.025-.003-.026-.002-.026-.003-.026-.003-.026-.004-.025-.003-.026-.004-.026-.003-.026-.004-.025-.004-.026-.005-.026-.004-.026-.004-.026-.005-.025-.005-.026-.005-.026-.005-.026-.005-.025-.005-.026-.006-.026-.006-.026-.006-.025-.005-.026-.007-.026-.006-.026-.006-.026-.007-.025-.006-.026-.007-.026-.007-.026-.007-.025-.008-.026-.007-.026-.007-.026-.008-.025-.008-.026-.008-.026-.008-.026-.008-.026-.008-.025-.009-.026-.008-.026-.01-.026-.008-.025-.009-.026-.009-.026-.01-.026-.009-.025-.01-.026-.009-.026-.01-.026-.01-.026-.01-.025-.01-.026-.01-.026-.01-.026-.01-.025-.011-.026-.01-.026-.012-.026-.01-.025-.012-.026-.01-.026-.012-.026-.012-.026-.011-.025-.012-.026-.011-.026-.012-.026-.012-.025-.012-.026-.013a10.039 10.039 0 0 1-.056-.026z" fill="#006CB9"/><path d="M16.757 10.102c-.02.015-.038.03-.056.046V6.637a2.7 2.7 0 0 1 .416-1.437 2.738 2.738 0 0 1 .052-.078l.026-.037.025-.036.026-.034.026-.034.026-.032a2.606 2.606 0 0 1 .051-.062l.026-.03.026-.028a2.63 2.63 0 0 1 .077-.081l.026-.026.026-.025.025-.024.026-.024.026-.023.026-.023.026-.022a3.11 3.11 0 0 1 .232-.174l.025-.017.026-.017.026-.016.026-.016.025-.015.026-.016.026-.014.026-.015.025-.013.026-.014.026-.013.026-.013.026-.013.025-.012.026-.012.026-.01c.008-.005.017-.009.026-.012l.025-.011.026-.01.026-.01.026-.01.025-.01.026-.01.026-.009.026-.008.026-.009.025-.008.026-.008.026-.007.026-.007.025-.007.026-.007.026-.007.026-.006.026-.006.025-.005.026-.006.026-.005.026-.005.025-.004.026-.004.026-.004.026-.004.025-.004.026-.003.026-.003c.009 0 .017-.002.026-.003l.026-.002.025-.002.026-.003.026-.001.026-.002.025-.001.026-.001.026-.001H23.299v13.407a2.713 2.713 0 0 1-.28 1.195 2.728 2.728 0 0 1-.155.27l-.025.039a2.806 2.806 0 0 1-.13.175l-.025.031-.026.031-.025.03-.026.029-.026.028-.026.027c-.008.01-.017.018-.026.027a2.669 2.669 0 0 1-.077.075l-.026.024-.025.024-.026.022-.026.022-.026.022-.025.02-.026.022-.026.02-.026.019-.026.019-.025.019-.026.017-.026.018-.026.017-.025.017-.026.016-.026.017-.026.015-.026.015a2.76 2.76 0 0 1-.025.015l-.026.014-.026.014-.026.014-.025.013-.026.013-.026.013-.026.012-.025.012-.026.012-.026.01-.026.012-.026.01c-.008.004-.017.008-.025.01l-.026.01-.026.01-.026.01-.025.009-.026.009-.026.008-.026.009-.026.007-.025.008-.026.007a2.18 2.18 0 0 1-.026.007l-.026.007-.025.007-.026.006-.026.006-.026.006-.025.005-.026.005-.026.005-.026.005-.026.004-.025.004-.026.004-.026.004-.026.003-.025.003-.026.003-.026.002-.026.003-.025.002-.026.002-.026.001-.026.002h-.026l-.025.002H16.7v-6.19a2.483 2.483 0 0 0 .107.086l.026.02.026.019a2.644 2.644 0 0 0 .051.036l.026.018.026.017.026.017.025.017.026.016.026.016.026.015.025.015.026.014.026.015.026.014.025.014.026.013.026.013.026.013.026.012.025.013.026.012.026.011.026.012.025.011.026.011.026.01.026.012.025.01.026.01.026.01.026.01.026.01.025.008.026.01.026.008.026.01.025.008.026.008.026.008.026.008.026.008.025.008.026.007.026.008.026.007.025.007.026.007.026.007.026.006.025.007.026.006.026.006.026.006.026.006.025.006.026.005.026.006.026.005.025.006.026.005.026.005.026.005.025.004.026.005.026.005.026.004.026.004.025.005.026.004.026.004.026.004.025.003.026.004.026.004.026.003.026.004.025.003.026.003.026.003.026.003.025.003.026.003.026.003.026.002.025.003.026.002.026.003.026.002.026.002.025.002.026.002.026.002.026.002.025.002.026.002.026.001.026.002.026.001.025.002.026.001.026.002h.026l.025.002h.026l.026.002h.026l.025.002h.026l.026.001h.026l.026.001h.025l.026.001h.026l.026.001H20.107l.026-.001.025-.001h.026l.026-.001h.026l.026-.002h.025l.026-.001.026-.001.026-.001.025-.001.026-.001.026-.001h.013l.013-.001.025-.002.026-.001.026-.002.026-.001.026-.002.025-.001.026-.002.026-.002.026-.002.025-.002.026-.002.026-.002.026-.003.026-.002.025-.002.026-.003.026-.002.026-.003.025-.003.026-.003.026-.002.026-.003.025-.003.026-.003.026-.004.026-.003.026-.003.025-.003.026-.004.026-.003.026-.003.025-.004.026-.004.026-.003.026-.004.025-.004.026-.004.026-.004.026-.003.026-.004.025-.004.026-.005.026-.004.026-.004.025-.004.026-.005.026-.004.026-.004.026-.005.025-.004.026-.005.026-.005.026-.004.025-.005.026-.005.026-.005.026-.005.025-.004.026-.005.026-.005.026-.006.026-.005.025-.005.026-.005.026-.005.026-.006.025-.005.026-.006.026-.005.026-.006.026-.005.025-.006.026-.006.026-.005.026-.006.025-.006.026-.006.026-.006.026-.006.025-.007.026-.006V13.26l-.026.012-.025.013-.026.013-.026.012-.026.013-.025.012-.026.012-.026.012-.026.012-.025.012-.026.012-.026.011-.026.012-.026.01-.025.012-.026.011-.026.01-.026.012-.025.01-.026.01-.026.01-.026.011-.026.01-.025.01-.026.01-.026.01-.026.009-.025.009-.026.009-.026.009-.026.009-.025.008-.026.009-.026.008-.026.009-.026.008-.025.008-.026.007-.026.008-.026.008-.025.007-.026.007-.026.007-.026.007-.026.007-.025.007-.026.006-.026.006-.026.007-.025.006-.026.006-.026.005-.026.006-.025.005-.026.006-.026.005-.026.005-.026.005-.025.005-.026.004-.026.005-.026.004-.025.004-.026.004-.026.004-.026.004-.025.004-.026.003-.026.003-.026.004-.026.003-.025.003-.026.002-.026.003-.026.003-.025.002-.026.002-.026.002-.016.002h-.01l-.026.002-.025.002-.026.001-.026.001-.026.002h-.025l-.026.001h-.026l-.026.001h-.129l-.025-.001-.026-.001-.026-.001-.026-.002-.025-.001-.026-.002-.026-.002-.026-.002-.026-.003-.025-.002-.026-.003-.026-.004-.026-.003-.025-.004c-.009 0-.018-.002-.026-.003l-.026-.005-.026-.004-.025-.005-.026-.005-.026-.005-.026-.006-.026-.005-.025-.007-.026-.006-.026-.007-.026-.007-.025-.007-.026-.008a2.259 2.259 0 0 1-.052-.017l-.025-.009-.026-.009-.026-.01-.026-.01-.026-.01-.025-.01-.026-.012-.026-.012a2.195 2.195 0 0 1-.077-.038l-.026-.014-.026-.014-.026-.015a1.91 1.91 0 0 1-.051-.032l-.026-.017-.026-.017a1.591 1.591 0 0 1-.051-.037l-.026-.02a1.724 1.724 0 0 1-.026-.021l-.025-.022a1.536 1.536 0 0 1-.336-.404 1.58 1.58 0 0 1-.128-.283 1.854 1.854 0 0 1-.078-.296 2.23 2.23 0 0 1-.036-.422 2.525 2.525 0 0 1 .036-.422 2.046 2.046 0 0 1 .103-.365 1.739 1.739 0 0 1 .207-.37 1.56 1.56 0 0 1 .206-.226l.026-.022.025-.022a1.725 1.725 0 0 1 .103-.078l.026-.017.026-.017a1.58 1.58 0 0 1 .051-.032l.026-.015.026-.014.026-.014a1.94 1.94 0 0 1 .077-.038l.026-.012.026-.011.025-.011.026-.01.026-.01.026-.01.026-.01.025-.008a2.27 2.27 0 0 1 .078-.025l.025-.007.026-.007.026-.007.026-.006.025-.007.026-.005.026-.006.026-.005.026-.005.025-.005.026-.004.026-.005.026-.003.025-.004.026-.003.026-.004.026-.003.025-.002.026-.003.026-.002.026-.002.026-.002.025-.001.026-.002h.026l.026-.002h.025l.026-.001h.155l.026.001.025.001.026.002h.026l.026.002.025.002.026.002h.01l.016.002.026.002.026.002.025.002.026.003.026.002.026.003.025.003.026.003.026.003.026.004.026.003.025.004.026.003.026.004.026.004.025.004.026.004.026.005.026.004.025.005.026.005.026.005.026.005.026.005.025.006.026.005.026.006.026.006.025.006.026.006.026.006.026.007.025.007.026.006.026.007.026.007.026.007.025.008.026.007.026.008.026.008.025.008.026.008.026.008.026.008.026.009.025.009.026.009.026.009.026.009.025.009.026.01.026.01.026.009.025.01.026.01.026.01.026.01.026.01.025.011.026.011.026.011.026.011.025.011.026.012.026.011.026.012.026.012.025.011.026.012.026.013.026.012.025.012.026.013.026.013.026.012.025.013.026.013V9.606L22.53 9.6l-.025-.007-.026-.006-.026-.006-.026-.006-.025-.006-.026-.006-.026-.005-.026-.006-.025-.006-.026-.005-.026-.006-.026-.005-.026-.006-.025-.005-.026-.006-.026-.005-.026-.005-.025-.005-.026-.005-.026-.006-.026-.005-.026-.005-.025-.004-.026-.005-.026-.005-.026-.005-.025-.005-.026-.004-.026-.005-.026-.005-.025-.004-.026-.005-.026-.004-.026-.004-.026-.005-.025-.004-.026-.004-.026-.004-.026-.004-.025-.004-.026-.004-.026-.004-.026-.004-.026-.004-.025-.004-.026-.004-.026-.003-.026-.004-.025-.003-.026-.004-.026-.003-.026-.004-.025-.003-.026-.003-.026-.003-.026-.003-.026-.003-.025-.003-.026-.003-.026-.003-.026-.003-.025-.003-.026-.002-.026-.003-.026-.002-.025-.003-.026-.002-.026-.002-.026-.002-.026-.003-.025-.002-.026-.002-.026-.001-.026-.002-.025-.002-.026-.001-.026-.002-.026-.001-.026-.002-.025-.001h-.013l-.013-.001-.026-.001-.026-.001-.025-.001-.026-.001-.026-.001-.026-.001h-.025l-.026-.002h-.052l-.026-.001-.025-.001h-.052l-.026-.001h-.077l-.026-.001h-.18l-.026.001h-.026l-.025.001h-.026l-.026.001-.026.001h-.026l-.025.002h-.026l-.026.002h-.026l-.025.002-.026.001-.026.001-.026.002-.025.001-.026.002-.026.001-.026.002-.026.002-.025.001-.026.002-.026.002-.026.002-.025.002-.026.003-.026.002-.026.002-.026.003-.025.002-.026.003-.026.003-.026.003-.025.002-.026.003-.026.004-.026.003-.025.003-.026.003-.026.004-.026.004-.026.003-.025.004-.026.004-.026.004-.026.004-.025.004-.026.005-.026.004-.026.004-.026.005-.025.005-.026.005-.026.005-.026.005-.025.005-.026.006-.026.005-.026.006-.025.006-.026.006-.026.005-.026.007-.026.006-.025.007-.026.006-.026.007-.026.007-.025.007-.026.007-.026.007-.026.008-.025.008-.026.007-.026.008-.026.009-.026.008-.025.009-.026.008-.026.01-.026.008-.025.01-.026.01-.026.009-.026.01-.026.01-.025.01-.026.01-.026.012-.026.01-.025.012-.026.011-.026.012-.026.012-.025.013-.026.012-.026.013-.026.013-.026.013-.025.014-.026.014-.026.014-.026.015-.025.015a3.027 3.027 0 0 0-.052.031l-.026.016a2.966 2.966 0 0 0-.025.017l-.026.017-.026.017-.026.018a3.038 3.038 0 0 0-.051.036l-.026.02a2.717 2.717 0 0 0-.077.06z" fill="#E10238"/></g></svg>