<svg width="40" height="24" viewBox="0 0 40 24" fill="none" xmlns="http://www.w3.org/2000/svg">
<path d="M2.24299 0H37.757C38.9958 0 40 0.991862 40 2.21538V21.7846C40 23.0081 38.9958 24 37.757 24H2.24299C1.00422 24 0 23.0081 0 21.7846V2.21538C0 0.991862 1.00422 0 2.24299 0Z" fill="white"/>
<path fill-rule="evenodd" clip-rule="evenodd" d="M1.99729 0C0.89154 0 0 0.897645 0 2.00495V21.9951C0 23.103 0.894218 24 1.99729 24H38.0027C39.1085 24 40 23.1024 40 21.9951V2.00495C40 0.897026 39.1058 0 38.0027 0H1.99729ZM0.500066 21.9951V2.00495C0.500066 1.17233 1.16921 0.5 1.99736 0.5H38.0028C38.8295 0.5 39.5001 1.17298 39.5001 2.00495V21.9951C39.5001 22.8277 38.8309 23.5 38.0028 23.5H1.99736C1.17062 23.5 0.500066 22.827 0.500066 21.9951Z" fill="#BDBDBD"/>
<path fill-rule="evenodd" clip-rule="evenodd" d="M19.7742 10.55C19.7601 11.661 20.7644 12.2811 21.5209 12.6497C22.2983 13.028 22.5593 13.2705 22.5564 13.6088C22.5504 14.1265 21.9363 14.3549 21.3615 14.3638C20.3587 14.3793 19.7757 14.0931 19.3121 13.8765L18.951 15.5668C19.416 15.7812 20.2771 15.9681 21.1701 15.9762C23.2662 15.9762 24.6375 14.9416 24.645 13.3373C24.6532 11.3013 21.8288 11.1886 21.848 10.2785C21.8547 10.0026 22.118 9.70813 22.6951 9.63323C22.9806 9.59543 23.769 9.56647 24.6628 9.9781L25.0136 8.34271C24.533 8.16765 23.9151 8 23.146 8C21.1731 8 19.7854 9.04876 19.7742 10.55V10.55ZM28.3846 8.14091C28.0019 8.14091 27.6793 8.3642 27.5354 8.70685L24.5411 15.8561H26.6357L27.0525 14.7042H29.6121L29.8539 15.8561H31.7L30.089 8.14091H28.3846ZM28.6776 10.2251L29.2821 13.1222H27.6266L28.6776 10.2251ZM17.2347 8.14091L15.5837 15.8561H17.5796L19.2298 8.14091H17.2347ZM14.282 8.14091L12.2045 13.3921L11.3641 8.92711C11.2655 8.42873 10.8761 8.14091 10.4437 8.14091H7.04749L7 8.36494C7.69722 8.51623 8.48935 8.76027 8.96921 9.02135C9.26289 9.18078 9.34675 9.32022 9.44314 9.69924L11.0348 15.8561H13.1442L16.378 8.14091H14.282Z" fill="#1A1F71"/>
</svg>
